HIERARCHY
ROOT Hips
{
 OFFSET 0.000000 0.000000 0.000000
 CHANNELS 6 Xposition Yposition Zposition Yrotation Xrotation Zrotation
 JOINT Chest
 {
  OFFSET 0.000000 9.585900 0.002600
  CHANNELS 3 Yrotation Xrotation Zrotation
  JOINT Chest2
  {
   OFFSET 0.000000 9.601200 -0.005300
   CHANNELS 3 Yrotation Xrotation Zrotation
   JOINT Chest3
   {
    OFFSET 0.000000 9.561800 0.000000
    CHANNELS 3 Yrotation Xrotation Zrotation
    JOINT Chest4
    {
     OFFSET 0.000000 9.552100 0.000000
     CHANNELS 3 Yrotation Xrotation Zrotation
     JOINT Neck
     {
      OFFSET 0.000000 14.453000 0.000000
      CHANNELS 3 Yrotation Xrotation Zrotation
      JOINT Head
      {
       OFFSET 0.000000 8.936500 -0.011300
       CHANNELS 3 Yrotation Xrotation Zrotation
       End Site
       {
        OFFSET 0.000000 17.073600 -0.006000
       }
      }
     }
     JOINT RightCollar
     {
      OFFSET -2.921100 9.558500 0.000000
      CHANNELS 3 Yrotation Xrotation Zrotation
      JOINT RightShoulder
      {
       OFFSET -13.519700 0.000000 0.000000
       CHANNELS 3 Yrotation Xrotation Zrotation
       JOINT RightElbow
       {
        OFFSET 0.000000 -29.696600 0.000000
        CHANNELS 3 Yrotation Xrotation Zrotation
        JOINT RightWrist
        {
         OFFSET 0.000000 -24.004700 0.000000
         CHANNELS 3 Yrotation Xrotation Zrotation
         End Site
         {
          OFFSET 0.000000 -17.728500 0.000000
         }
        }
       }
      }
     }
     JOINT LeftCollar
     {
      OFFSET 2.921100 9.558500 0.000000
      CHANNELS 3 Yrotation Xrotation Zrotation
      JOINT LeftShoulder
      {
       OFFSET 13.519700 0.000000 0.000000
       CHANNELS 3 Yrotation Xrotation Zrotation
       JOINT LeftElbow
       {
        OFFSET 0.000000 -29.696600 0.000000
        CHANNELS 3 Yrotation Xrotation Zrotation
        JOINT LeftWrist
        {
         OFFSET 0.000000 -24.004700 0.000000
         CHANNELS 3 Yrotation Xrotation Zrotation
         End Site
         {
          OFFSET 0.000000 -17.728500 0.000000
         }
        }
       }
      }
     }
    }
   }
  }
 }
 JOINT RightHip
 {
  OFFSET -7.771700 -0.012900 -0.001300
  CHANNELS 3 Yrotation Xrotation Zrotation
  JOINT RightKnee
  {
   OFFSET 0.000000 -40.869800 0.001200
   CHANNELS 3 Yrotation Xrotation Zrotation
   JOINT RightAnkle
   {
    OFFSET 0.000000 -39.717900 0.002100
    CHANNELS 3 Yrotation Xrotation Zrotation
    JOINT RightToe
    {
     OFFSET 0.000000 -4.965400 11.033500
     CHANNELS 3 Yrotation Xrotation Zrotation
     End Site
     {
      OFFSET 0.000000 -1.423100 5.872300
     }
    }
   }
  }
 }
 JOINT LeftHip
 {
  OFFSET 7.771700 -0.012900 -0.001300
  CHANNELS 3 Yrotation Xrotation Zrotation
  JOINT LeftKnee
  {
   OFFSET 0.000000 -40.869800 0.001200
   CHANNELS 3 Yrotation Xrotation Zrotation
   JOINT LeftAnkle
   {
    OFFSET 0.000000 -39.717900 0.002100
    CHANNELS 3 Yrotation Xrotation Zrotation
    JOINT LeftToe
    {
     OFFSET 0.000000 -4.965400 11.033500
     CHANNELS 3 Yrotation Xrotation Zrotation
     End Site
     {
      OFFSET 0.000000 -1.423100 5.872300
     }
    }
   }
  }
 }
}
MOTION
Frames: 15
Frame Time: 0.008333
-62.785327 48.212392 15.407138 176.089233 -30.514457 -0.493462 -0.116936 13.418605 1.752806 -0.149716 7.701377 1.464991 -0.156490 9.627140 1.832197 -0.149758 7.701318 1.464973 0.593711 22.460872 -2.694737 1.791206 5.980527 -5.021497 9.481845 6.050959 -5.715729 -2.766540 -22.693867 -7.379263 -106.665710 -67.284163 122.421105 1.245174 -9.566734 -30.975174 -3.238529 3.197485 -0.865874 9.125782 -23.214641 -4.877976 69.869156 -67.358002 -95.414595 3.608364 3.161761 34.096325 25.354000 -50.996444 -30.569850 -106.974488 64.829964 -98.494709 0.960681 -2.906360 4.225340 0.053862 -0.895727 0.012782 -7.771435 -54.079964 12.326931 97.335041 81.536943 94.993160 -5.932529 -8.240310 -2.870090 0.379637 0.773000 0.179382
-62.786018 48.215691 15.404397 176.067884 -30.425956 -0.486923 -0.115063 13.424568 1.752972 -0.151622 7.706477 1.464574 -0.158846 9.633493 1.831653 -0.151671 7.706454 1.464571 0.519009 22.416923 -2.676026 1.653269 5.894881 -4.968868 9.488793 6.078396 -5.705539 -2.761455 -22.643895 -7.347828 -106.625197 -67.605884 122.260386 1.282619 -9.549812 -31.010227 -3.273226 3.241627 -0.903887 9.031934 -23.171460 -4.920939 68.934341 -67.809530 -94.250617 3.584672 3.310476 34.224200 25.405831 -51.077291 -30.624114 -106.972018 64.834458 -98.493702 0.958888 -2.903759 4.230501 0.055516 -0.902527 0.008410 -7.777470 -54.162921 12.353113 97.336414 81.526135 94.994661 -5.933432 -8.243050 -2.870825 0.379349 0.769372 0.176443
-62.786015 48.219651 15.400165 176.042394 -30.346025 -0.482651 -0.111480 13.439925 1.756874 -0.153731 7.710983 1.464089 -0.161432 9.639074 1.830962 -0.153730 7.711006 1.464022 0.449372 22.372960 -2.658400 1.524655 5.809616 -4.919402 9.499579 6.107579 -5.695601 -2.745246 -22.599918 -7.317193 -106.585071 -67.952959 122.090507 1.325666 -9.525655 -31.060765 -3.308110 3.284757 -0.944818 8.919935 -23.135278 -4.950861 67.952132 -68.261826 -93.025938 3.574051 3.481701 34.368536 25.450682 -51.152679 -30.666115 -106.981250 64.838579 -98.498729 0.947719 -2.908065 4.227190 0.068009 -0.907289 0.008468 -7.776837 -54.237745 12.373734 97.368049 81.517684 95.032198 -5.914519 -8.250981 -2.868535 0.363069 0.767513 0.168177
-62.786788 48.223646 15.395679 176.029053 -30.265193 -0.480444 -0.120437 13.454704 1.757043 -0.156507 7.715564 1.463487 -0.148898 9.592260 1.828813 -0.173422 7.767657 1.467283 0.432758 22.296776 -2.656712 1.362921 5.752617 -4.836463 9.513361 6.136273 -5.688118 -2.721631 -22.559844 -7.285646 -106.518875 -68.307469 121.893501 1.369519 -9.491911 -31.126578 -3.340985 3.324154 -0.988447 8.785422 -23.104315 -4.967778 66.937259 -68.703593 -91.760355 3.573521 3.697482 34.558585 25.478159 -51.226161 -30.709941 -106.988764 64.842201 -98.503112 0.940673 -2.925684 4.222104 0.081602 -0.904010 0.008000 -7.773553 -54.314867 12.378874 97.368669 81.511194 95.046197 -5.901654 -8.256280 -2.863166 0.345174 0.764795 0.155185
-62.789066 48.227103 15.392136 176.008953 -30.175162 -0.466654 -0.125304 13.460445 1.750088 -0.146852 7.670188 1.462357 -0.174146 9.674180 1.830917 -0.167896 7.745941 1.465254 0.344676 22.264193 -2.631825 1.266517 5.643462 -4.806211 9.523788 6.162911 -5.682666 -2.686542 -22.517699 -7.257188 -106.397178 -68.639954 121.644991 1.405946 -9.451329 -31.204580 -3.374898 3.360448 -1.035524 8.624810 -23.079333 -4.972863 65.884929 -69.109454 -90.452856 3.576958 3.963352 34.810201 25.517765 -51.303787 -30.771722 -106.969145 64.860282 -98.493929 0.955397 -2.933177 4.234070 0.063548 -0.903168 -0.001693 -7.749932 -54.400740 12.368189 97.339640 81.501554 95.031503 -5.883233 -8.261044 -2.860049 0.345317 0.762769 0.148596
-62.788429 48.233984 15.383270 175.985716 -30.121707 -0.466646 -0.124010 13.503776 1.758374 -0.156115 7.699113 1.462221 -0.178411 9.680969 1.830372 -0.162216 7.724354 1.462643 0.259280 22.228015 -2.605081 1.172512 5.530871 -4.775012 9.528837 6.188204 -5.676374 -2.637151 -22.470589 -7.234638 -106.182503 -68.915235 121.313844 1.426564 -9.410200 -31.288652 -3.411829 3.395213 -1.084204 8.448659 -23.060746 -4.967863 64.779282 -69.442465 -89.098291 3.577003 4.259278 35.114684 25.535668 -51.353375 -30.786821 -106.968818 64.865837 -98.493128 0.951935 -2.930407 4.228883 0.069631 -0.916797 0.005606 -7.740774 -54.444531 12.378669 97.353013 81.493506 95.062409 -5.872648 -8.275073 -2.866472 0.354918 0.760304 0.147531
-62.789566 48.237927 15.379800 175.961956 -30.029063 -0.458136 -0.126564 13.509355 1.756142 -0.164429 7.728761 1.461735 -0.174805 9.661379 1.827899 -0.164464 7.728748 1.461684 0.200421 22.173146 -2.584419 1.062626 5.425967 -4.722936 9.532186 6.211065 -5.668840 -2.579788 -22.419606 -7.213030 -105.840241 -69.112504 120.873911 1.421367 -9.377872 -31.366767 -3.449643 3.426752 -1.127615 8.271931 -23.042693 -4.959064 63.640115 -69.675326 -87.726495 3.572536 4.556684 35.436941 25.585154 -51.436138 -30.843327 -106.977394 64.859873 -98.490315 0.941474 -2.952648 4.214141 0.091433 -0.907366 0.012827 -7.721427 -54.523951 12.366956 97.267069 81.480054 94.997270 -5.841314 -8.303026 -2.870581 0.337104 0.781431 0.140132
-62.791606 48.240966 15.378367 175.936727 -29.921540 -0.444436 -0.130062 13.502290 1.747741 -0.166554 7.733581 1.460340 -0.177481 9.667436 1.826114 -0.166566 7.733598 1.460294 0.144332 22.112537 -2.561832 0.957387 5.310463 -4.668075 9.533590 6.228130 -5.659713 -2.521199 -22.364616 -7.191355 -105.367100 -69.228716 120.329672 1.386648 -9.360576 -31.429308 -3.488746 3.453289 -1.163186 8.097661 -23.017265 -4.953594 62.526346 -69.806522 -86.400319 3.574817 4.824778 35.737920 25.649234 -51.532362 -30.917127 -106.968844 64.866218 -98.485277 0.946007 -2.958525 4.222106 0.089480 -0.905854 0.008655 -7.721196 -54.623572 12.379224 97.233971 81.472547 94.967177 -5.823982 -8.310064 -2.871831 0.317586 0.783805 0.136739
-62.794498 48.245018 15.375643 175.917516 -29.822719 -0.428206 -0.139081 13.504920 1.733452 -0.169005 7.738401 1.459194 -0.180472 9.673496 1.824640 -0.168991 7.738455 1.459158 0.091696 22.046981 -2.539208 0.858418 5.186029 -4.614045 9.532505 6.240778 -5.649761 -2.467477 -22.304224 -7.172032 -104.803956 -69.272747 119.723796 1.332979 -9.354381 -31.474011 -3.530609 3.478511 -1.193284 7.924731 -22.979604 -4.955842 61.502388 -69.850548 -85.185234 3.595360 5.039567 35.997806 25.710044 -51.619193 -30.993086 -106.962288 64.870119 -98.483097 0.944933 -2.958399 4.229932 0.090789 -0.910218 0.006158 -7.728198 -54.712127 12.391494 97.201459 81.468171 94.930811 -5.825326 -8.318068 -2.869860 0.316263 0.786181 0.131308
-62.793301 48.250147 15.371899 175.896093 -29.734007 -0.435006 -0.128152 13.466621 1.747933 -0.182734 7.792179 1.457999 -0.184153 9.679488 1.823746 -0.171970 7.743206 1.458515 0.042627 21.978099 -2.517958 0.766247 5.055643 -4.563443 9.528127 6.253499 -5.641568 -2.424294 -22.240358 -7.152757 -104.210989 -69.267582 119.112447 1.275516 -9.351218 -31.504706 -3.574859 3.506442 -1.219584 7.753195 -22.926104 -4.966252 60.610620 -69.829668 -84.119756 3.634501 5.192147 36.203327 25.748377 -51.706693 -31.029347 -106.971016 64.853087 -98.480369 0.939253 -2.957813 4.218782 0.113423 -0.919301 0.013816 -7.774656 -54.784890 12.450595 97.186034 81.463207 94.912893 -5.823567 -8.334872 -2.883186 0.319181 0.794825 0.132066
-62.793463 48.254947 15.369075 175.870417 -29.639811 -0.432319 -0.114021 13.421345 1.755860 -0.196992 7.847086 1.457253 -0.188029 9.685368 1.824063 -0.175052 7.747870 1.458858 -0.004102 21.906299 -2.499507 0.679181 4.920048 -4.518469 9.521966 6.267844 -5.637214 -2.390987 -22.176148 -7.131239 -103.654555 -69.244830 118.550969 1.225215 -9.350755 -31.528734 -3.621880 3.534961 -1.244007 7.589160 -22.856571 -4.981982 59.864508 -69.768619 -83.212649 3.681667 5.287670 36.343649 25.803468 -51.795954 -31.080264 -106.966124 64.852046 -98.475211 0.935602 -2.947527 4.222559 0.117242 -0.931468 0.015960 -7.798470 -54.868919 12.495742 97.203388 81.471807 94.930680 -5.826515 -8.343757 -2.887924 0.331638 0.792291 0.131816
-62.792640 48.260051 15.366193 175.836702 -29.548399 -0.431961 -0.116068 13.505623 1.762709 -0.184811 7.777508 1.459797 -0.192169 9.690821 1.825979 -0.178357 7.752237 1.460446 -0.048576 21.832037 -2.485041 0.597296 4.780183 -4.481330 9.515293 6.286538 -5.637488 -2.362338 -22.115979 -7.108878 -103.192214 -69.231081 118.085426 1.189967 -9.354738 -31.546188 -3.666994 3.559923 -1.269346 7.443227 -22.774638 -5.001703 59.241121 -69.690766 -82.445276 3.724731 5.338160 36.424527 25.828911 -51.890449 -31.107857 -106.936475 64.862272 -98.462093 0.952130 -2.937244 4.241015 0.101629 -0.943615 0.001718 -7.826581 -54.949262 12.549452 97.218999 81.465298 94.961162 -5.856649 -8.354555 -2.918336 0.356290 0.788998 0.143774
-62.796294 48.264958 15.363569 175.817046 -29.454694 -0.412375 -0.129265 13.539244 1.745183 -0.182331 7.756452 1.463088 -0.197065 9.696081 1.829141 -0.182321 7.756428 1.463079 -0.089973 21.756592 -2.474470 0.521913 4.638391 -4.452021 9.504312 6.311793 -5.640294 -2.335607 -22.063472 -7.088167 -102.852432 -69.245018 117.742961 1.174834 -9.357038 -31.553350 -3.705278 3.579339 -1.296951 7.324182 -22.686293 -5.026865 58.684657 -69.619649 -81.771034 3.758966 5.357322 36.460540 25.886732 -51.970835 -31.181484 -106.921977 64.864346 -98.453540 0.951578 -2.941688 4.244639 0.101853 -0.946542 0.011372 -7.905589 -55.016339 12.607181 97.167859 81.445418 94.863732 -5.842148 -8.372835 -2.923556 0.336575 0.803319 0.137831
-62.796822 48.269357 15.362320 175.801842 -29.354993 -0.414382 -0.135624 13.540232 1.750542 -0.186580 7.760602 1.466304 -0.202293 9.701257 1.833010 -0.186600 7.760578 1.466290 -0.127618 21.681646 -2.466592 0.453972 4.497779 -4.428496 9.490000 6.343397 -5.641924 -2.313704 -22.019147 -7.069399 -102.640299 -69.298277 117.530543 1.176294 -9.352709 -31.548192 -3.738293 3.597434 -1.324537 7.236962 -22.601952 -5.059355 58.142083 -69.580057 -81.137987 3.780991 5.357302 36.466609 25.920133 -52.061866 -31.231501 -106.896968 64.870246 -98.431922 0.963573 -2.942947 4.247250 0.097465 -0.947643 0.006397 -7.950189 -55.106140 12.659967 97.154475 81.439929 94.845013 -5.845543 -8.372219 -2.932054 0.337691 0.795548 0.143557
-62.796646 48.273750 15.361213 175.788733 -29.256259 -0.421355 -0.143027 13.541528 1.761091 -0.190788 7.764410 1.469407 -0.190435 9.652582 1.830839 -0.208178 7.817358 1.478147 -0.160056 21.608151 -2.459344 0.395599 4.360013 -4.407487 9.477863 6.380151 -5.640667 -2.302813 -21.984081 -7.052581 -102.535617 -69.390889 117.428501 1.187204 -9.342401 -31.528677 -3.765677 3.619214 -1.349320 7.177792 -22.529559 -5.098050 57.591833 -69.598194 -80.515514 3.787937 5.348890 36.455962 25.946380 -52.152171 -31.274007 -106.865325 64.871544 -98.405402 0.984632 -2.944253 4.254487 0.088004 -0.948013 -0.001253 -8.002762 -55.193855 12.718286 97.126895 81.434002 94.820552 -5.860927 -8.374383 -2.949045 0.355369 0.794020 0.145916
